<?xml version="1.0" encoding="UTF-8"?>
<svg version="1.1" xmlns="http://www.w3.org/2000/svg" width="141" height="132">
<path d="M0 0 C3.85802754 0.96450689 4.61273491 1.23461077 7.20703125 3.84375 C7.7906543 4.42680908 8.37427734 5.00986816 8.97558594 5.6105957 C9.58176758 6.23409912 10.18794922 6.85760254 10.8125 7.5 C11.43543945 8.13059326 12.05837891 8.76118652 12.70019531 9.41088867 C16.7123357 13.52432983 20.41206522 17.74981258 23.765625 22.42578125 C24.93174794 24.14416507 24.93174794 24.14416507 27 25 C27.0825 23.9275 27.165 22.855 27.25 21.75 C28.05750814 17.71245928 28.5980806 16.26794627 32 14 C34.625 14.0625 34.625 14.0625 37 15 C39.0362816 18.05442241 39.25488704 18.69129629 39.265625 22.1328125 C39.26949219 23.34324219 39.26949219 23.34324219 39.2734375 24.578125 C39.26570313 25.41859375 39.25796875 26.2590625 39.25 27.125 C39.26160156 28.35089844 39.26160156 28.35089844 39.2734375 29.6015625 C39.25757618 34.61373968 38.6997767 39.13696818 37.42871094 43.98779297 C36.86108122 46.30913727 36.86108122 46.30913727 37 50 C37.26627197 49.47156494 37.53254395 48.94312988 37.80688477 48.39868164 C51.63004677 21.1241879 51.63004677 21.1241879 62 17 C66.12899067 16.12910178 69.32066618 16.72565365 73.25 18.3125 C80.11785795 25.02427027 80.91769882 36.01672151 82.1875 45.125 C82.51092488 47.3572658 82.83756283 49.5890693 83.16796875 51.8203125 C83.30485107 52.79242676 83.4417334 53.76454102 83.58276367 54.76611328 C83.77545639 56.96387676 83.77545639 56.96387676 85 58 C86.51928038 58.07179964 88.04167482 58.08392007 89.5625 58.0625 C90.38878906 58.05347656 91.21507812 58.04445312 92.06640625 58.03515625 C92.70449219 58.02355469 93.34257812 58.01195312 94 58 C95.1875 60.125 95.1875 60.125 96 63 C94.76555697 66.78048177 93.28683375 68.73365437 90.375 71.4375 C86.06101234 73.43471651 82.51087416 73.57470516 78 72 C70.80339481 66.28736632 69.96817534 55.70260384 68.9375 47.125 C68.79441406 45.87847656 68.65132813 44.63195312 68.50390625 43.34765625 C67.911329 39.41092213 66.87051508 36.48595991 65 33 C62.63810577 33.0343142 62.63810577 33.0343142 60 34 C58.33474507 36.02079293 57.06623082 37.83206954 55.75 40.0625 C55.3679541 40.68157227 54.9859082 41.30064453 54.59228516 41.93847656 C51.32129725 47.29781298 48.28774432 52.79304836 45.24853516 58.28588867 C37.36971802 72.42018798 37.36971802 72.42018798 32 76 C30.72125 75.773125 29.4425 75.54625 28.125 75.3125 C26.01311502 74.93177431 26.01311502 74.93177431 24 75 C21.35418376 77.06026719 21.35418376 77.06026719 19 80 C10.15563923 87.57032968 1.25008583 89.58293406 -10.28125 88.73046875 C-12.02187558 88.55979364 -13.76151864 88.378785 -15.5 88.1875 C-16.39203125 88.10435547 -17.2840625 88.02121094 -18.203125 87.93554688 C-24.74323753 87.25676247 -24.74323753 87.25676247 -27 85 C-23.46843481 81.31118515 -19.81465908 78.22617756 -15.6875 75.1875 C-15.13771484 74.78080078 -14.58792969 74.37410156 -14.02148438 73.95507812 C-12.68374453 72.96631389 -11.34226377 71.98261415 -10 71 C-10.76183594 70.443125 -11.52367188 69.88625 -12.30859375 69.3125 C-26.22819702 59.02485314 -26.22819702 59.02485314 -31 54 C-31 53.34 -31 52.68 -31 52 C-27.7 51.34 -24.4 50.68 -21 50 C-21 47.37432721 -21.9326983 46.38897386 -23.40625 44.2265625 C-23.90253906 43.4840625 -24.39882813 42.7415625 -24.91015625 41.9765625 C-25.96642996 40.4142117 -27.02630666 38.8542905 -28.08984375 37.296875 C-28.83427734 36.17925781 -28.83427734 36.17925781 -29.59375 35.0390625 C-30.05458984 34.36053223 -30.51542969 33.68200195 -30.99023438 32.98291016 C-32 31 -32 31 -32 27 C-23.97229811 27.55363461 -16.66145933 29.65687944 -9 32 C-9.2165625 31.18015625 -9.433125 30.3603125 -9.65625 29.515625 C-9.9346875 28.43796875 -10.213125 27.3603125 -10.5 26.25 C-10.7784375 25.18265625 -11.056875 24.1153125 -11.34375 23.015625 C-12 20 -12 20 -12 16 C-7.01662614 16.58627928 -5.67695716 17.88202856 -1 21 C-0.67 14.07 -0.34 7.14 0 0 Z " fill="#CAE2D0" transform="translate(39,22)"/>
<path d="M0 0 C3.50871818 0.89967133 4.43797116 2.65990084 6.4375 5.625 C7.21118164 8.57592773 7.21118164 8.57592773 7.59765625 11.80859375 C7.75169922 12.98357422 7.90574219 14.15855469 8.06445312 15.36914062 C8.20818359 16.58794922 8.35191406 17.80675781 8.5 19.0625 C8.79357875 21.47907615 9.09665749 23.89452099 9.41015625 26.30859375 C9.53656494 27.37650146 9.66297363 28.44440918 9.79321289 29.54467773 C10.71244024 33.93948314 12.24955439 37.43705439 15.4375 40.625 C20.77939034 41.06285986 24.07588197 41.06142632 28.4375 37.625 C28.9325 36.635 28.9325 36.635 29.4375 35.625 C30.0975 35.625 30.7575 35.625 31.4375 35.625 C30.49709669 39.01045193 29.47980458 40.58579088 26.875 43 C22.52654281 45.05563431 19.00146478 45.21823861 14.4375 43.625 C7.24089481 37.91236632 6.40567534 27.32760384 5.375 18.75 C5.23191406 17.50347656 5.08882813 16.25695312 4.94140625 14.97265625 C4.348829 11.03592213 3.30801508 8.11095991 1.4375 4.625 C-0.92439423 4.6593142 -0.92439423 4.6593142 -3.5625 5.625 C-5.22775493 7.64579293 -6.49626918 9.45706954 -7.8125 11.6875 C-8.1945459 12.30657227 -8.5765918 12.92564453 -8.97021484 13.56347656 C-12.24120275 18.92281298 -15.27475568 24.41804836 -18.31396484 29.91088867 C-26.19278198 44.04518798 -26.19278198 44.04518798 -31.5625 47.625 C-32.84125 47.398125 -34.12 47.17125 -35.4375 46.9375 C-37.54938498 46.55677431 -37.54938498 46.55677431 -39.5625 46.625 C-42.20831624 48.68526719 -42.20831624 48.68526719 -44.5625 51.625 C-53.40686077 59.19532968 -62.31241417 61.20793406 -73.84375 60.35546875 C-75.58437558 60.18479364 -77.32401864 60.003785 -79.0625 59.8125 C-79.95453125 59.72935547 -80.8465625 59.64621094 -81.765625 59.56054688 C-88.30573753 58.88176247 -88.30573753 58.88176247 -90.5625 56.625 C-87.03093481 52.93618515 -83.37715908 49.85117756 -79.25 46.8125 C-78.42532227 46.20245117 -78.42532227 46.20245117 -77.58398438 45.58007812 C-76.24624453 44.59131389 -74.90476377 43.60761415 -73.5625 42.625 C-74.32433594 42.068125 -75.08617188 41.51125 -75.87109375 40.9375 C-89.79069702 30.64985314 -89.79069702 30.64985314 -94.5625 25.625 C-94.5625 24.965 -94.5625 24.305 -94.5625 23.625 C-84.92387832 21.09683694 -75.44813297 21.44230863 -65.5625 21.625 C-65.8925 21.026875 -66.2225 20.42875 -66.5625 19.8125 C-67.5625 17.625 -67.5625 17.625 -67.5625 14.625 C-57.16872538 15.52880649 -48.94694681 19.94903303 -41.1875 26.6875 C-38.95824903 30.71729983 -38.93472917 34.4284899 -38.73828125 38.98046875 C-38.73532942 41.60176406 -38.73532942 41.60176406 -37.5625 43.625 C-34.77311788 44.04390218 -34.77311788 44.04390218 -31.5625 43.625 C-26.99436049 39.84166242 -24.530228 35.39906234 -21.8125 30.25 C-20.94067124 28.64351546 -20.06693793 27.03806321 -19.19140625 25.43359375 C-18.53615967 24.22872314 -18.53615967 24.22872314 -17.86767578 22.99951172 C-15.88941705 19.4004574 -13.840443 15.84736248 -11.75 12.3125 C-11.40163086 11.70937988 -11.05326172 11.10625977 -10.69433594 10.48486328 C-8.07075514 6.08019314 -5.20422372 1.26932286 0 0 Z " fill="#B676A1" transform="translate(102.5625,50.375)"/>
<path d="M0 0 C3.85802754 0.96450689 4.61273491 1.23461077 7.20703125 3.84375 C7.7906543 4.42680908 8.37427734 5.00986816 8.97558594 5.6105957 C9.58176758 6.23409912 10.18794922 6.85760254 10.8125 7.5 C11.43543945 8.13059326 12.05837891 8.76118652 12.70019531 9.41088867 C16.7123357 13.52432983 20.41206522 17.74981258 23.765625 22.42578125 C24.93174794 24.14416507 24.93174794 24.14416507 27 25 C27.21552718 36.23136083 27.02562659 46.91331161 25 58 C22.29030743 56.75639373 20.81814935 55.81323446 18.6875 53.625 C12.22447398 47.31227691 4.51761642 45.4079878 -4 43 C-3.34 45.31 -2.68 47.62 -2 50 C-17.07671751 51.20882368 -17.07671751 51.20882368 -21.21875 48.60546875 C-22.77092502 46.48847449 -23.86025944 44.36459162 -25 42 C-26.28084565 40.07608516 -27.57289149 38.15958826 -28.875 36.25 C-31.27792265 32.6092081 -32 31.47832368 -32 27 C-23.97229811 27.55363461 -16.66145933 29.65687944 -9 32 C-9.2165625 31.18015625 -9.433125 30.3603125 -9.65625 29.515625 C-9.9346875 28.43796875 -10.213125 27.3603125 -10.5 26.25 C-10.7784375 25.18265625 -11.056875 24.1153125 -11.34375 23.015625 C-12 20 -12 20 -12 16 C-7.01662614 16.58627928 -5.67695716 17.88202856 -1 21 C-0.67 14.07 -0.34 7.14 0 0 Z " fill="#F18869" transform="translate(39,22)"/>
<path d="M0 0 C0.33 0.66 0.66 1.32 1 2 C3.02695382 2.39193511 3.02695382 2.39193511 5.375 2.5 C8.89651464 2.72941463 9.92939296 2.95292864 13 5 C13 5.66 13 6.32 13 7 C13.57234375 7.10570313 14.1446875 7.21140625 14.734375 7.3203125 C17.35337827 8.10601348 19.06089282 9.24533132 21.25 10.875 C22.30960938 11.64457031 22.30960938 11.64457031 23.390625 12.4296875 C23.92171875 12.94789062 24.4528125 13.46609375 25 14 C25 14.99 25 15.98 25 17 C23.25976562 17.03867188 23.25976562 17.03867188 21.484375 17.078125 C12.88997702 17.36107194 5.49706851 17.89664721 -2.51953125 21.35546875 C-5.76873274 22.19974945 -7.06483581 21.55336493 -10 20 C-16.82253967 15.82062967 -23.47555231 10.8046733 -29 5 C-29 4.34 -29 3.68 -29 3 C-19.41490083 0.6430084 -9.82123389 0.38316929 0 0 Z " fill="#02B0C6" transform="translate(37,71)"/>
<path d="M0 0 C5.14860706 1.28715177 5.86461447 2.90658001 9 7 C8.21625 7.12375 7.4325 7.2475 6.625 7.375 C3.85942178 7.79117993 3.85942178 7.79117993 2 10 C1.72138603 12.81711479 1.72138603 12.81711479 1.8046875 16.1015625 C1.81435547 17.91914062 1.81435547 17.91914062 1.82421875 19.7734375 C1.84097656 21.04445313 1.85773437 22.31546875 1.875 23.625 C1.88402344 24.90375 1.89304688 26.1825 1.90234375 27.5 C1.92597697 30.66685167 1.95892371 33.83333424 2 37 C-0.64 36.67 -3.28 36.34 -6 36 C-6 36.66 -6 37.32 -6 38 C-5.34 38 -4.68 38 -4 38 C-3.67 39.32 -3.34 40.64 -3 42 C-3.66 42 -4.32 42 -5 42 C-4.505 42.94875 -4.01 43.8975 -3.5 44.875 C-2 48 -2 48 -2 50 C-17.07671751 51.20882368 -17.07671751 51.20882368 -21.21875 48.60546875 C-22.77092502 46.48847449 -23.86025944 44.36459162 -25 42 C-26.28084565 40.07608516 -27.57289149 38.15958826 -28.875 36.25 C-31.27792265 32.6092081 -32 31.47832368 -32 27 C-23.97229811 27.55363461 -16.66145933 29.65687944 -9 32 C-9.2165625 31.18015625 -9.433125 30.3603125 -9.65625 29.515625 C-9.9346875 28.43796875 -10.213125 27.3603125 -10.5 26.25 C-10.7784375 25.18265625 -11.056875 24.1153125 -11.34375 23.015625 C-12 20 -12 20 -12 16 C-7.01662614 16.58627928 -5.67695716 17.88202856 -1 21 C-0.67 14.07 -0.34 7.14 0 0 Z " fill="#C3DD8B" transform="translate(39,22)"/>
<path d="M0 0 C9.54004943 3.45386675 16.7677078 10.50520727 21.25390625 19.51953125 C23.22992375 24.11187854 24.53497253 27.91776099 24 33 C21.27049805 31.88798069 19.77304829 30.76691446 17.6875 28.625 C12.11383021 23.18095043 4.34469305 19.23275141 -3.5 18.8125 C-4.7375 18.9053125 -4.7375 18.9053125 -6 19 C-5.67 17.02 -5.34 15.04 -5 13 C-5.66 13 -6.32 13 -7 13 C-7 12.34 -7 11.68 -7 11 C-4.36 11.33 -1.72 11.66 1 12 C0.835 11.319375 0.67 10.63875 0.5 9.9375 C-0.07089059 6.5835178 -0.06659023 3.39610195 0 0 Z " fill="#FAC335" transform="translate(40,47)"/>
<path d="M0 0 C3.50871818 0.89967133 4.43797116 2.65990084 6.4375 5.625 C7.21118164 8.57592773 7.21118164 8.57592773 7.59765625 11.80859375 C7.75169922 12.98357422 7.90574219 14.15855469 8.06445312 15.36914062 C8.20818359 16.58794922 8.35191406 17.80675781 8.5 19.0625 C8.79357875 21.47907615 9.09665749 23.89452099 9.41015625 26.30859375 C9.53656494 27.37650146 9.66297363 28.44440918 9.79321289 29.54467773 C10.71244024 33.93948314 12.24955439 37.43705439 15.4375 40.625 C20.77939034 41.06285986 24.07588197 41.06142632 28.4375 37.625 C28.9325 36.635 28.9325 36.635 29.4375 35.625 C30.0975 35.625 30.7575 35.625 31.4375 35.625 C30.49709669 39.01045193 29.47980458 40.58579088 26.875 43 C22.52654281 45.05563431 19.00146478 45.21823861 14.4375 43.625 C7.24089481 37.91236632 6.40567534 27.32760384 5.375 18.75 C5.23191406 17.50347656 5.08882812 16.25695312 4.94140625 14.97265625 C4.348829 11.03592213 3.30801508 8.11095991 1.4375 4.625 C-0.92439423 4.6593142 -0.92439423 4.6593142 -3.5625 5.625 C-5.22775493 7.64579293 -6.49626918 9.45706954 -7.8125 11.6875 C-8.1945459 12.30657227 -8.5765918 12.92564453 -8.97021484 13.56347656 C-12.24120275 18.92281298 -15.27475568 24.41804836 -18.31396484 29.91088867 C-26.19278198 44.04518798 -26.19278198 44.04518798 -31.5625 47.625 C-35.25 47.25 -35.25 47.25 -38.5625 46.625 C-38.8925 45.305 -39.2225 43.985 -39.5625 42.625 C-38.9025 42.955 -38.2425 43.285 -37.5625 43.625 C-34.68943772 44.12595023 -34.68943772 44.12595023 -31.5625 43.625 C-27.0010176 39.82747319 -24.53249905 35.40336511 -21.8125 30.25 C-20.94067124 28.64351546 -20.06693793 27.03806321 -19.19140625 25.43359375 C-18.7545752 24.63034668 -18.31774414 23.82709961 -17.86767578 22.99951172 C-15.88941705 19.4004574 -13.840443 15.84736248 -11.75 12.3125 C-11.22744629 11.40781982 -11.22744629 11.40781982 -10.69433594 10.48486328 C-8.07075514 6.08019314 -5.20422372 1.26932286 0 0 Z " fill="#2D3931" transform="translate(102.5625,50.375)"/>
<path d="M0 0 C5.14860706 1.28715177 5.86461447 2.90658001 9 7 C8.21625 7.12375 7.4325 7.2475 6.625 7.375 C3.85942178 7.79117993 3.85942178 7.79117993 2 10 C1.72138603 12.81711479 1.72138603 12.81711479 1.8046875 16.1015625 C1.81113281 17.31328125 1.81757812 18.525 1.82421875 19.7734375 C1.84097656 21.04445313 1.85773437 22.31546875 1.875 23.625 C1.88402344 24.90375 1.89304687 26.1825 1.90234375 27.5 C1.92597697 30.66685167 1.95892371 33.83333424 2 37 C1.41347656 36.85046875 0.82695313 36.7009375 0.22265625 36.546875 C-1.69635572 36.07471037 -3.62864536 35.65712729 -5.5625 35.25 C-7.3828125 34.48046875 -7.3828125 34.48046875 -9 33 C-11.09638441 27.46583837 -12 21.90219836 -12 16 C-7.01662614 16.58627928 -5.67695716 17.88202856 -1 21 C-0.67 14.07 -0.34 7.14 0 0 Z " fill="#FCF692" transform="translate(39,22)"/>
<path d="M0 0 C0 0.66 0 1.32 0 2 C1.98 1.67 3.96 1.34 6 1 C9.43054885 4.57499302 9.34784582 7.41641631 9.25 12.25 C9.23904297 12.91588135 9.22808594 13.5817627 9.21679688 14.26782227 C9.11263625 18.90919724 8.74744262 23.42191396 8 28 C7.34 28 6.68 28 6 28 C5.78085937 27.3709375 5.56171875 26.741875 5.3359375 26.09375 C1.45290616 15.61272232 -3.92643372 9.4523138 -13 3 C-10 2 -10 2 -6 2 C-3 0 -3 0 0 0 Z " fill="#F17555" transform="translate(57,46)"/>
<path d="M0 0 C-0.99 0.66 -1.98 1.32 -3 2 C-0.78071806 4.90802461 0.92969143 6.95312762 4 9 C3.67 11.97 3.34 14.94 3 18 C5.64 18 8.28 18 11 18 C10.67 18.66 10.34 19.32 10 20 C6.37308963 21.12161679 4.61626053 21.287925 1.140625 19.6640625 C-5.60156354 14.90808626 -12.33404932 10.04200936 -18 4 C-18 3.34 -18 2.68 -18 2 C-11.88019467 0.59545452 -6.28260706 -0.23268915 0 0 Z " fill="#44C1E8" transform="translate(26,72)"/>
<path d="M0 0 C10.2864941 0.89447775 19.24386987 5.12191782 26.4375 12.5 C28.18313508 15.29301613 28.36923118 16.76922717 28 20 C25.03216871 18.54331217 22.13584687 16.98767914 19.25 15.375 C18.45078125 14.92898437 17.6515625 14.48296875 16.828125 14.0234375 C16.22484375 13.68570313 15.6215625 13.34796875 15 13 C15 12.34 15 11.68 15 11 C14.16855469 10.84144531 13.33710937 10.68289062 12.48046875 10.51953125 C10.85044922 10.16955078 10.85044922 10.16955078 9.1875 9.8125 C7.56908203 9.48185547 7.56908203 9.48185547 5.91796875 9.14453125 C3 8 3 8 1.11328125 5.57421875 C0 3 0 3 0 0 Z " fill="#407929" transform="translate(35,65)"/>
<path d="M0 0 C0.33 0 0.66 0 1 0 C1.20963173 4.92634563 0.65938869 9.10947338 -0.5625 13.88671875 C-1.13515021 16.29314165 -1.13515021 16.29314165 -1 20 C0.65 16.7 2.3 13.4 4 10 C4.33 10.66 4.66 11.32 5 12 C6.65 11.01 8.3 10.02 10 9 C12 12 12 12 11.84765625 14.26171875 C10.7778268 17.71771158 9.19364109 20.65144604 7.4375 23.8125 C6.9434668 24.7087207 6.9434668 24.7087207 6.43945312 25.62304688 C5.63226733 27.08533998 4.81695083 28.5431399 4 30 C3.01 29.67 2.02 29.34 1 29 C1 26.69 1 24.38 1 22 C-0.65 22.66 -2.3 23.32 -4 24 C-2.12345679 2.12345679 -2.12345679 2.12345679 0 0 Z " fill="#BDD3C3" transform="translate(77,52)"/>
<path d="M0 0 C0.33 0.66 0.66 1.32 1 2 C3.02695382 2.39193511 3.02695382 2.39193511 5.375 2.5 C8.89651464 2.72941463 9.92939296 2.95292864 13 5 C13 5.66 13 6.32 13 7 C13.57234375 7.10570313 14.1446875 7.21140625 14.734375 7.3203125 C17.35337827 8.10601348 19.06089282 9.24533132 21.25 10.875 C22.30960938 11.64457031 22.30960938 11.64457031 23.390625 12.4296875 C23.92171875 12.94789062 24.4528125 13.46609375 25 14 C25 14.99 25 15.98 25 17 C23.75863281 17.06058594 22.51726563 17.12117188 21.23828125 17.18359375 C19.59634423 17.26803623 17.95441768 17.35268236 16.3125 17.4375 C15.49587891 17.47681641 14.67925781 17.51613281 13.83789062 17.55664062 C9.80344189 17.76898003 5.94252691 18.04447922 2 19 C2.33 18.34 2.66 17.68 3 17 C5.3140622 16.26924352 7.64828869 15.59861742 10 15 C10 14.34 10 13.68 10 13 C10.66 13 11.32 13 12 13 C12 11.68 12 10.36 12 9 C9.53673288 7.3553326 9.53673288 7.3553326 7 6 C7 5.34 7 4.68 7 4 C4.20775927 3.91928212 1.41783434 3.85964592 -1.375 3.8125 C-2.1690625 3.78736328 -2.963125 3.76222656 -3.78125 3.73632812 C-5.85586148 3.70995595 -7.93100865 3.84513538 -10 4 C-10.99 5.485 -10.99 5.485 -12 7 C-12.99 5.35 -13.98 3.7 -15 2 C-10.05 1.34 -5.1 0.68 0 0 Z " fill="#0E9BC3" transform="translate(37,71)"/>
<path d="M0 0 C4.571279 0.54855348 8.67435795 1.41744803 13 3 C13 3.66 13 4.32 13 5 C15.31 5.66 17.62 6.32 20 7 C20.33 6.34 20.66 5.68 21 5 C23 11.75 23 11.75 23 14 C23.66 14 24.32 14 25 14 C24.67 14.66 24.34 15.32 24 16 C23.443125 15.67386719 22.88625 15.34773438 22.3125 15.01171875 C12.30405949 9.24835903 12.30405949 9.24835903 1 8 C1.33 6.02 1.66 4.04 2 2 C1.34 2 0.68 2 0 2 C0 1.34 0 0.68 0 0 Z " fill="#DAC82B" transform="translate(33,58)"/>
<path d="M0 0 C1.09570312 0.00902344 2.19140625 0.01804687 3.3203125 0.02734375 C4.16335937 0.03894531 5.00640625 0.05054687 5.875 0.0625 C7.8828125 3.8203125 7.8828125 3.8203125 7.8125 6 C6.45118896 8.99488429 4.26827587 10.85332228 1.875 13.0625 C-0.2769437 9.83458445 -0.32586443 8.77849191 -0.125 5.0625 C-1.115 5.5575 -1.115 5.5575 -2.125 6.0625 C-4.16555005 6.13315617 -6.20834257 6.14671976 -8.25 6.125 C-9.34570312 6.11597656 -10.44140625 6.10695313 -11.5703125 6.09765625 C-12.83488281 6.08025391 -12.83488281 6.08025391 -14.125 6.0625 C-14.125 5.7325 -14.125 5.4025 -14.125 5.0625 C-12.145 5.0625 -10.165 5.0625 -8.125 5.0625 C-8.125 3.7425 -8.125 2.4225 -8.125 1.0625 C-5.36047967 -0.31976016 -3.0788637 -0.03275387 0 0 Z " fill="#965E93" transform="translate(56.125,88.9375)"/>
<path d="M0 0 C0.99 0.33 1.98 0.66 3 1 C2.67 1.99 2.34 2.98 2 4 C0.67696283 4.3721042 -0.65737935 4.70630173 -2 5 C-2.33 5.66 -2.66 6.32 -3 7 C-1.68 7.33 -0.36 7.66 1 8 C1 8.66 1 9.32 1 10 C-0.65614657 10.38218767 -2.32457024 10.71395102 -4 11 C-4.33 10.67 -4.66 10.34 -5 10 C-5.33 10.66 -5.66 11.32 -6 12 C-5.01 12.33 -4.02 12.66 -3 13 C-3.99 14.485 -3.99 14.485 -5 16 C-7.3125 16.36328125 -7.3125 16.36328125 -10 16.3125 C-10.886875 16.30863281 -11.77375 16.30476563 -12.6875 16.30078125 C-15 16 -15 16 -17 14 C-13.50104307 10.37193026 -9.89085672 7.19476516 -5.875 4.125 C-4.84117188 3.32320313 -3.80734375 2.52140625 -2.7421875 1.6953125 C-1.83726563 1.13585937 -0.93234375 0.57640625 0 0 Z " fill="#BF8CAE" transform="translate(29,93)"/>
<path d="M0 0 C4.14636163 1.73851641 5.32510668 3.66022758 7.18359375 7.625 C8.57149116 11.66251974 8.82611232 15.75714059 9 20 C5.83884224 18.63016497 5.0072908 18.0109362 3 15 C3 14.01 3 13.02 3 12 C2.34 12 1.68 12 1 12 C-0.80619523 7.53763531 -1.11658501 4.68965706 0 0 Z " fill="#FAC325" transform="translate(55,60)"/>
<path d="M0 0 C0.33 0 0.66 0 1 0 C1 1.98 1 3.96 1 6 C0.67 5.34 0.34 4.68 0 4 C-4.62 4.33 -9.24 4.66 -14 5 C-14 6.32 -14 7.64 -14 9 C-13.34 9.66 -12.68 10.32 -12 11 C-18.02870457 12.927545 -24.41105984 10.52403749 -30 8 C-22.69987663 4.04576651 -16.70684428 2.55185918 -8.5 2.8125 C-7.67757812 2.82603516 -6.85515625 2.83957031 -6.0078125 2.85351562 C-4.00491779 2.88844984 -2.00236644 2.94223943 0 3 C0 2.01 0 1.02 0 0 Z " fill="#846F9D" transform="translate(62,85)"/>
<path d="M0 0 C7.23589973 0.60299164 13.99370876 2.1150587 21 4 C21 4.33 21 4.66 21 5 C16.915021 5.54466387 13.1274515 6 9 6 C8.01 7.485 8.01 7.485 7 9 C7.66 9.33 8.32 9.66 9 10 C9 10.66 9 11.32 9 12 C7.68 12 6.36 12 5 12 C3.515625 10.390625 3.515625 10.390625 2.25 8.25 C1.60804687 7.20585938 1.60804687 7.20585938 0.953125 6.140625 C0 4 0 4 0 0 Z " fill="#D2E4A7" transform="translate(7,49)"/>
<path d="M0 0 C0.66 0 1.32 0 2 0 C2 0.99 2 1.98 2 3 C2.99 2.67 3.98 2.34 5 2 C7.99816485 3.77442409 10.53540571 5.53540571 13 8 C13.125 10.625 13.125 10.625 13 13 C10.03216871 11.54331217 7.13584687 9.98767914 4.25 8.375 C3.45078125 7.92898437 2.6515625 7.48296875 1.828125 7.0234375 C1.22484375 6.68570313 0.6215625 6.34796875 0 6 C0 5.34 0 4.68 0 4 C-2.64 3.34 -5.28 2.68 -8 2 C-8 1.67 -8 1.34 -8 1 C-2.25 0.875 -2.25 0.875 0 2 C0 1.34 0 0.68 0 0 Z " fill="#2A7B43" transform="translate(50,72)"/>
<path d="M0 0 C-0.86625 0.4021875 -0.86625 0.4021875 -1.75 0.8125 C-4.14394326 2.07597005 -6.04575024 3.11313817 -8 5 C-8.80946422 8.10197397 -8.80946422 8.10197397 -9 11 C-15.92307692 6.53846154 -15.92307692 6.53846154 -18 4 C-18 3.34 -18 2.68 -18 2 C-11.88019467 0.59545452 -6.28260706 -0.23268915 0 0 Z " fill="#71C9E9" transform="translate(26,72)"/>
<path d="M0 0 C0.66 0 1.32 0 2 0 C2.18451025 15.74487472 2.18451025 15.74487472 1 23 C0.34 23 -0.32 23 -1 23 C-3.19371837 14.18595298 -3.50853118 8.47895036 0 0 Z " fill="#A55939" transform="translate(64,51)"/>
<path d="M0 0 C1.65 0 3.3 0 5 0 C5.2475 0.61875 5.495 1.2375 5.75 1.875 C7.20628639 4.35068687 8.37812506 4.95125002 11 6 C8.50494038 8.49505962 7.32671112 8.35948376 3.875 8.625 C2.96492188 8.69976562 2.05484375 8.77453125 1.1171875 8.8515625 C0.06917969 8.92503906 0.06917969 8.92503906 -1 9 C-2.60031344 5.79937313 -1.03173691 3.27728194 0 0 Z " fill="#07BDE9" transform="translate(30,82)"/>
<path d="M0 0 C4.81023365 1.0387691 6.04019146 3.13580552 9 7 C8.21625 7.12375 7.4325 7.2475 6.625 7.375 C3.85942178 7.79117993 3.85942178 7.79117993 2 10 C1.69940057 12.36509361 1.50484988 14.74441881 1.375 17.125 C1.30023438 18.40632813 1.22546875 19.68765625 1.1484375 21.0078125 C1.09945312 21.99523437 1.05046875 22.98265625 1 24 C-1 22 -1 22 -1.13525391 19.75341797 C-1.08288574 18.84221191 -1.03051758 17.93100586 -0.9765625 16.9921875 C-0.925 16.00605469 -0.8734375 15.01992188 -0.8203125 14.00390625 C-0.75585938 12.97136719 -0.69140625 11.93882813 -0.625 10.875 C-0.56828125 9.83472656 -0.5115625 8.79445313 -0.453125 7.72265625 C-0.31138791 5.14776582 -0.15995446 2.5738126 0 0 Z " fill="#F0BAA2" transform="translate(39,22)"/>
<path d="M0 0 C6.75 0.75 6.75 0.75 9 3 C9 4.32 9 5.64 9 7 C13.455 7.99 13.455 7.99 18 9 C18 9.66 18 10.32 18 11 C17.43152344 10.86722656 16.86304687 10.73445313 16.27734375 10.59765625 C11.52848903 9.5115242 6.83219676 8.61687618 2 8 C2 6 2 4 2 2 C1.34 2 0.68 2 0 2 C0 1.34 0 0.68 0 0 Z " fill="#B7D148" transform="translate(33,58)"/>
<path d="M0 0 C0.66 0 1.32 0 2 0 C1.05959669 3.38545193 0.04230458 4.96079088 -2.5625 7.375 C-7.03880551 9.4910717 -10.29022524 9.41472322 -15 8 C-17.99452434 5.75410675 -18.81623122 4.55130633 -20 1 C-17.53199953 2.15173355 -15.95216435 3.04783565 -14 5 C-8.65810966 5.43785986 -5.36161803 5.43642632 -1 2 C-0.67 1.34 -0.34 0.68 0 0 Z " fill="#0F1610" transform="translate(132,86)"/>
<path d="M0 0 C1.3303125 0.4021875 1.3303125 0.4021875 2.6875 0.8125 C2.6875 1.4725 2.6875 2.1325 2.6875 2.8125 C3.6775 3.1425 4.6675 3.4725 5.6875 3.8125 C4.6975 5.2975 4.6975 5.2975 3.6875 6.8125 C1.375 7.17578125 1.375 7.17578125 -1.3125 7.125 C-2.199375 7.12113281 -3.08625 7.11726563 -4 7.11328125 C-6.3125 6.8125 -6.3125 6.8125 -8.3125 4.8125 C-4.12788462 -0.23365385 -4.12788462 -0.23365385 0 0 Z " fill="#C493B5" transform="translate(20.3125,102.1875)"/>
<path d="M0 0 C1.32 0 2.64 0 4 0 C5.26384713 2.08163056 6.01693993 3.47486215 5.9375 5.9375 C4.57618896 8.93238429 2.39327587 10.79082228 0 13 C0 12.01 0 11.02 0 10 C-0.185625 9.401875 -0.37125 8.80375 -0.5625 8.1875 C-1.14421826 5.27890868 -0.58932842 2.88116119 0 0 Z " fill="#7E4570" transform="translate(58,89)"/>
<path d="M0 0 C0.11593506 0.79696289 0.23187012 1.59392578 0.35131836 2.41503906 C0.8779532 6.02700139 1.4076914 9.63850191 1.9375 13.25 C2.11990234 14.50425781 2.30230469 15.75851563 2.49023438 17.05078125 C2.66748047 18.25605469 2.84472656 19.46132812 3.02734375 20.703125 C3.18968506 21.81333008 3.35202637 22.92353516 3.51928711 24.06738281 C3.9063404 26.42862414 4.36968804 28.69457883 5 31 C4.34 31 3.68 31 3 31 C0.49497898 23.90244046 -0.69092058 16.86194424 -1.5703125 9.41796875 C-1.9285192 6.5685973 -2.39106343 3.80431315 -3 1 C-1 0 -1 0 0 0 Z " fill="#68786D" transform="translate(109,56)"/>
<path d="M0 0 C0.99 0.66 1.98 1.32 3 2 C2.7834375 2.61746094 2.566875 3.23492187 2.34375 3.87109375 C0.38255242 9.83640307 -0.30344498 14.72880367 0 21 C-2.23960447 18.12050853 -4.29864224 15.23257974 -6 12 C-5.67 11.34 -5.34 10.68 -5 10 C-4.34 10 -3.68 10 -3 10 C-2.01 6.7 -1.02 3.4 0 0 Z " fill="#DA6548" transform="translate(62,47)"/>
<path d="M0 0 C1.65 0.33 3.3 0.66 5 1 C3.68 1.33 2.36 1.66 1 2 C1 2.66 1 3.32 1 4 C1.66 4 2.32 4 3 4 C3.33 5.32 3.66 6.64 4 8 C3.34 8 2.68 8 2 8 C2.99 10.31 3.98 12.62 5 15 C1.7 15 -1.6 15 -5 15 C-4.175 14.38125 -3.35 13.7625 -2.5 13.125 C-0.50986993 11.19092993 -0.03081956 10.23749193 0.33203125 7.44140625 C0.31432259 4.9444847 0.21731991 2.48710565 0 0 Z " fill="#C1D86C" transform="translate(32,56)"/>
<path d="M0 0 C5.65020618 0.60108576 10.66164461 2.07528683 16 4 C12.88017688 4.84426503 10.23070336 5 7 5 C5.32656552 5.29749946 3.65694085 5.62127066 2 6 C0 3 0 3 0 0 Z " fill="#618F37" transform="translate(35,65)"/>
<path d="M0 0 C-0.125 1.75 -0.125 1.75 -1 4 C-6.65125076 8.46843084 -11.81704768 10.34204535 -19 10 C-16.75646013 7.75646013 -15.14580823 7.19832922 -12.1875 6.125 C-8.21869715 4.60162113 -3.8701672 0 0 0 Z " fill="#A0618A" transform="translate(57,100)"/>
<path d="M0 0 C4.51013391 0.53060399 7.38378219 2.30886117 11 5 C11 5.33 11 5.66 11 6 C8.69 6 6.38 6 4 6 C3.67 8.31 3.34 10.62 3 13 C1.32889958 10.03821227 0.67317248 7.62928808 0.375 4.25 C0.30023437 3.45078125 0.22546875 2.6515625 0.1484375 1.828125 C0.09945313 1.22484375 0.05046875 0.6215625 0 0 Z " fill="#FCFACF" transform="translate(27,38)"/>
<path d="M0 0 C4.67105792 1.55701931 8.08705685 4.08447373 12 7 C9 8 9 8 6.875 7.1875 C5 6 5 6 4 4 C3.01 4.495 3.01 4.495 2 5 C2.99 6.485 2.99 6.485 4 8 C3.625 10.1875 3.625 10.1875 3 12 C2.34 12 1.68 12 1 12 C0.01751476 7.9472484 -0.08159574 4.16138263 0 0 Z " fill="#FDB94D" transform="translate(40,47)"/>
<path d="M0 0 C5.29158974 1.40071493 7.77478044 4.85487245 11 9 C8.73337803 7.93635977 7.17911146 7.2015004 5.5 5.3125 C4.08887339 3.77653698 4.08887339 3.77653698 2.0625 4.0625 C-0.54317359 5.24689708 -2.09490208 6.89078445 -4 9 C-4.33 7.35 -4.66 5.7 -5 4 C-3.35 2.68 -1.7 1.36 0 0 Z " fill="#F09C82" transform="translate(45,28)"/>
<path d="M0 0 C1.41750563 0.11509661 2.83401169 0.24253658 4.25 0.375 C5.03890625 0.44460937 5.8278125 0.51421875 6.640625 0.5859375 C9 1 9 1 13 3 C7.555 4.485 7.555 4.485 2 6 C1.34 5.34 0.68 4.68 0 4 C0 2.68 0 1.36 0 0 Z " fill="#DCE8BA" transform="translate(7,49)"/>
<path d="M0 0 C0.66 0.33 1.32 0.66 2 1 C-2.00877598 6.70946882 -2.00877598 6.70946882 -6.625 8.0625 C-10 8 -10 8 -11.9375 6.5625 C-12.4634375 5.7890625 -12.4634375 5.7890625 -13 5 C-12.67 4.34 -12.34 3.68 -12 3 C-11.67 3.33 -11.34 3.66 -11 4 C-7.04644974 4.44926708 -5.44377677 4.30871428 -2.125 2 C-1.42375 1.34 -0.7225 0.68 0 0 Z " fill="#171B19" transform="translate(76,90)"/>
<path d="M0 0 C2.33944736 0.28730055 4.6739143 0.61936779 7 1 C6.21625 1.721875 5.4325 2.44375 4.625 3.1875 C2.15587562 5.83299041 1.06739722 7.60373611 0 11 C-0.33 11 -0.66 11 -1 11 C-1.02688151 9.35425434 -1.04634123 7.70838587 -1.0625 6.0625 C-1.07410156 5.14597656 -1.08570312 4.22945312 -1.09765625 3.28515625 C-1 1 -1 1 0 0 Z " fill="#FCF8AD" transform="translate(31,43)"/>
<path d="M0 0 C0.33 0.99 0.66 1.98 1 3 C-0.15628906 3.05607422 -0.15628906 3.05607422 -1.3359375 3.11328125 C-2.84027344 3.21189453 -2.84027344 3.21189453 -4.375 3.3125 C-5.87160156 3.39951172 -5.87160156 3.39951172 -7.3984375 3.48828125 C-8.25695312 3.65714844 -9.11546875 3.82601562 -10 4 C-10.99 5.485 -10.99 5.485 -12 7 C-12.99 5.35 -13.98 3.7 -15 2 C-10.05 1.34 -5.1 0.68 0 0 Z " fill="#2EBBAD" transform="translate(37,71)"/>
<path d="M0 0 C0.99 1.32 1.98 2.64 3 4 C2.01 6.31 1.02 8.62 0 11 C-0.99 10.67 -1.98 10.34 -3 10 C-3.29296875 3.9453125 -3.29296875 3.9453125 -3 2 C-2.01 1.34 -1.02 0.68 0 0 Z " fill="#58C9EE" transform="translate(20,74)"/>
<path d="M0 0 C0.33 0 0.66 0 1 0 C0.85820962 2.22942748 0.71140302 4.45853628 0.5625 6.6875 C0.48128906 7.92886719 0.40007812 9.17023437 0.31640625 10.44921875 C0.05508683 13.38180337 -0.34798379 16.13441617 -1 19 C-1.33 19 -1.66 19 -2 19 C-3.11388158 11.69937859 -3.17441612 6.72976216 0 0 Z " fill="#C55339" transform="translate(64,51)"/>
<path d="M0 0 C0.66 0.33 1.32 0.66 2 1 C1.67 3.97 1.34 6.94 1 10 C3.64 10 6.28 10 9 10 C8.67 10.66 8.34 11.32 8 12 C5.1875 12.875 5.1875 12.875 2 13 C-0.375 11.25 -0.375 11.25 -2 9 C-2 8.01 -2 7.02 -2 6 C-1.34 6 -0.68 6 0 6 C0 4.02 0 2.04 0 0 Z " fill="#31B9E5" transform="translate(28,80)"/>
<path d="M0 0 C0.33 0 0.66 0 1 0 C1.33 4.29 1.66 8.58 2 13 C-2 12 -2 12 -4 10 C-3.34 9.34 -2.68 8.68 -2 8 C-1.32707499 6.03309626 -1.32707499 6.03309626 -0.875 3.875 C-0.58625 2.59625 -0.2975 1.3175 0 0 Z " fill="#F8EB79" transform="translate(39,46)"/>
<path d="M0 0 C2.475 0.495 2.475 0.495 5 1 C5 1.66 5 2.32 5 3 C5.639375 3.28875 6.27875 3.5775 6.9375 3.875 C9 5 9 5 10 7 C5.545 6.01 5.545 6.01 1 5 C0.67 3.35 0.34 1.7 0 0 Z " fill="#C4C932" transform="translate(41,60)"/>
<path d="M0 0 C1.76094117 1.02156019 3.47187493 2.12809491 5.17578125 3.2421875 C4.84578125 4.5621875 4.51578125 5.8821875 4.17578125 7.2421875 C3.18578125 6.2521875 2.19578125 5.2621875 1.17578125 4.2421875 C0.18578125 4.7371875 0.18578125 4.7371875 -0.82421875 5.2421875 C-1.81421875 4.9121875 -2.80421875 4.5821875 -3.82421875 4.2421875 C-3.82421875 3.5821875 -3.82421875 2.9221875 -3.82421875 2.2421875 C-4.48421875 1.9121875 -5.14421875 1.5821875 -5.82421875 1.2421875 C-3.71823965 -0.44259578 -2.55921503 -1.06314286 0 0 Z " fill="#E48269" transform="translate(60.82421875,43.7578125)"/>
<path d="M0 0 C2.62901288 1.52206009 4.84365964 2.84365964 7 5 C7.125 7.625 7.125 7.625 7 10 C6.01 9.67 5.02 9.34 4 9 C3.67 7.35 3.34 5.7 3 4 C2.01 4 1.02 4 0 4 C-0.33 3.01 -0.66 2.02 -1 1 C-0.67 0.67 -0.34 0.34 0 0 Z " fill="#17642C" transform="translate(56,75)"/>
<path d="M0 0 C1.43836751 0.11458693 2.87570966 0.24209116 4.3125 0.375 C5.51326172 0.47941406 5.51326172 0.47941406 6.73828125 0.5859375 C9 1 9 1 12 3 C12 3.66 12 4.32 12 5 C13.32 5.33 14.64 5.66 16 6 C11.82412255 7.39195915 9.86525224 5.82323219 6 4 C6 3.34 6 2.68 6 2 C3.03 1.505 3.03 1.505 0 1 C0 0.67 0 0.34 0 0 Z " fill="#14989C" transform="translate(38,73)"/>
<path d="M0 0 C0.33 0.66 0.66 1.32 1 2 C0.67 2.66 0.34 3.32 0 4 C-2.97 4 -5.94 4 -9 4 C-9 3.34 -9 2.68 -9 2 C-5.86501708 0.14223235 -3.62528568 -0.20140476 0 0 Z " fill="#45863F" transform="translate(47,69)"/>
<path d="M0 0 C-3 2 -3 2 -5 2 C-5 3.32 -5 4.64 -5 6 C-6.9375 5.1875 -6.9375 5.1875 -9 4 C-9.33 3.01 -9.66 2.02 -10 1 C-6.78548731 -0.60725635 -3.56387464 -0.05748185 0 0 Z " fill="#9DD1E3" transform="translate(18,73)"/>
<path d="M0 0 C1.32 0 2.64 0 4 0 C4.99 2.97 5.98 5.94 7 9 C6.01 9 5.02 9 4 9 C4 7.35 4 5.7 4 4 C2.68 4 1.36 4 0 4 C-0.33 3.01 -0.66 2.02 -1 1 C-0.67 0.67 -0.34 0.34 0 0 Z " fill="#9E5790" transform="translate(52,90)"/>
<path d="M0 0 C0.66 0.33 1.32 0.66 2 1 C2.625 3.5625 2.625 3.5625 3 6 C1.68 6 0.36 6 -1 6 C-1 6.66 -1 7.32 -1 8 C-2.32 8.33 -3.64 8.66 -5 9 C-3.35 6.03 -1.7 3.06 0 0 Z " fill="#D7E7DC" transform="translate(87,52)"/>
<path d="M0 0 C1.5 1.125 1.5 1.125 3 3 C3.1875 6.1875 3.1875 6.1875 3 9 C1.0625 8.1875 1.0625 8.1875 -1 7 C-1.33 6.01 -1.66 5.02 -2 4 C-1.34 4 -0.68 4 0 4 C0 2.68 0 1.36 0 0 Z " fill="#C3B222" transform="translate(61,71)"/>
<path d="M0 0 C2.88575819 0.39803561 3.82189513 0.79009069 5.75 3.0625 C6.1625 3.701875 6.575 4.34125 7 5 C4.69 5.33 2.38 5.66 0 6 C0 4.02 0 2.04 0 0 Z " fill="#F2D2C3" transform="translate(39,22)"/>
<path d="M0 0 C1.65 0.33 3.3 0.66 5 1 C4.75 3.375 4.75 3.375 4 6 C1.9375 7.3125 1.9375 7.3125 0 8 C0 7.01 0 6.02 0 5 C0.99 5 1.98 5 3 5 C3 4.34 3 3.68 3 3 C1.68 3 0.36 3 -1 3 C-0.67 2.01 -0.34 1.02 0 0 Z " fill="#3AC7F5" transform="translate(23,79)"/>
<path d="M0 0 C4.02992782 0.55312735 8.02022924 1.1558062 12 2 C12.33 3.32 12.66 4.64 13 6 C12.34 6 11.68 6 11 6 C11 5.01 11 4.02 11 3 C10.34 3 9.68 3 9 3 C8.67 3.66 8.34 4.32 8 5 C5.36 4.01 2.72 3.02 0 2 C0 1.34 0 0.68 0 0 Z " fill="#D8ECE1" transform="translate(122,79)"/>
<path d="M0 0 C0.763125 0.20625 1.52625 0.4125 2.3125 0.625 C1.3125 2.625 1.3125 2.625 -1.625 3.625 C-3.1409375 4.12 -3.1409375 4.12 -4.6875 4.625 C-5.3475 5.285 -6.0075 5.945 -6.6875 6.625 C-6.375 4.25 -6.375 4.25 -5.6875 1.625 C-2.6875 -0.375 -2.6875 -0.375 0 0 Z " fill="#D2E7DB" transform="translate(73.6875,36.375)"/>
<path d="M0 0 C0.99 0.33 1.98 0.66 3 1 C2.67 1.99 2.34 2.98 2 4 C-1.17242648 5.31035007 -3.55881664 6 -7 6 C-4.74259377 3.66475218 -2.7194239 1.81294927 0 0 Z " fill="#AF8AA9" transform="translate(29,93)"/>
<path d="M0 0 C3 1 3 1 4.1875 3.0625 C4.455625 3.701875 4.72375 4.34125 5 5 C4.01 5.33 3.02 5.66 2 6 C2 6.99 2 7.98 2 9 C1.34 9 0.68 9 0 9 C0 9.99 0 10.98 0 12 C-0.66 11.67 -1.32 11.34 -2 11 C-1.65775391 10.18595703 -1.65775391 10.18595703 -1.30859375 9.35546875 C-1.02113281 8.64003906 -0.73367187 7.92460938 -0.4375 7.1875 C-0.14746094 6.47980469 0.14257812 5.77210937 0.44140625 5.04296875 C1.25063024 2.8264933 1.25063024 2.8264933 0 0 Z " fill="#45CBEE" transform="translate(21,74)"/>
<path d="M0 0 C2.64 0 5.28 0 8 0 C7.4225 0.268125 6.845 0.53625 6.25 0.8125 C3.9674132 2.01719859 2.0262058 3.40798115 0 5 C-1.32 4.34 -2.64 3.68 -4 3 C-2.68 2.67 -1.36 2.34 0 2 C0 1.34 0 0.68 0 0 Z " fill="#6DCDD7" transform="translate(18,72)"/>
<path d="M0 0 C3.66060821 0.58536753 5.54535164 2.083239 8.25 4.5625 C8.95640625 5.20316406 9.6628125 5.84382813 10.390625 6.50390625 C10.92171875 6.99761719 11.4528125 7.49132813 12 8 C11.67 8.66 11.34 9.32 11 10 C9.72799029 8.89718873 8.45744147 7.79269231 7.1875 6.6875 C6.47980469 6.07261719 5.77210937 5.45773438 5.04296875 4.82421875 C3.29863261 3.26665665 1.63221959 1.67341125 0 0 Z " fill="#EB8547" transform="translate(44,48)"/>
<path d="M0 0 C0 1.65 0 3.3 0 5 C-2.97 4.505 -2.97 4.505 -6 4 C-5.67 3.01 -5.34 2.02 -5 1 C-3 0 -3 0 0 0 Z " fill="#CDB3C5" transform="translate(18,104)"/>
<path d="M0 0 C0.66 1.32 1.32 2.64 2 4 C2.99 5.485 2.99 5.485 4 7 C3.625 9.1875 3.625 9.1875 3 11 C2.34 11 1.68 11 1 11 C0.67 7.37 0.34 3.74 0 0 Z " fill="#F7C147" transform="translate(40,48)"/>
<path d="M0 0 C2.97 0.33 5.94 0.66 9 1 C9 1.33 9 1.66 9 2 C7.865625 2.12375 6.73125 2.2475 5.5625 2.375 C3.7990625 2.684375 3.7990625 2.684375 2 3 C1.67 3.66 1.34 4.32 1 5 C0.67 3.35 0.34 1.7 0 0 Z " fill="#EDF3D9" transform="translate(7,49)"/>
<path d="M0 0 C-0.33 0.99 -0.66 1.98 -1 3 C-5.455 3.495 -5.455 3.495 -10 4 C-7.25346796 1.25346796 -3.91404908 0 0 0 Z " fill="#A57191" transform="translate(48,106)"/>
<path d="M0 0 C1.65 0 3.3 0 5 0 C5 1.65 5 3.3 5 5 C4.01 5 3.02 5 2 5 C2 4.01 2 3.02 2 2 C1.34 2 0.68 2 0 2 C0 1.34 0 0.68 0 0 Z " fill="#EBCE14" transform="translate(56,70)"/>
<path d="M0 0 C1.921875 0.7109375 1.921875 0.7109375 4 2 C4.828125 4.1640625 4.828125 4.1640625 5.25 6.625 C5.39953125 7.44226563 5.5490625 8.25953125 5.703125 9.1015625 C5.80109375 9.72804688 5.8990625 10.35453125 6 11 C0 3.28571429 0 3.28571429 0 0 Z " fill="#DF712F" transform="translate(56,57)"/>
<path d="M0 0 C0.66 0 1.32 0 2 0 C1.1875 2.4375 1.1875 2.4375 0 5 C-3 6 -3 6 -6 5 C-5.195625 4.54625 -4.39125 4.0925 -3.5625 3.625 C-0.91143428 2.25274335 -0.91143428 2.25274335 0 0 Z " fill="#2C352D" transform="translate(132,86)"/>
<path d="M0 0 C3.02419525 0.58803797 6.01758453 1.22678118 9 2 C9.33 3.32 9.66 4.64 10 6 C6.7 4.35 3.4 2.7 0 1 C0 0.67 0 0.34 0 0 Z " fill="#0A775A" transform="translate(50,77)"/>
<path d="M0 0 C2.475 0.495 2.475 0.495 5 1 C4.01 1.33 3.02 1.66 2 2 C2 4.31 2 6.62 2 9 C1.67 9 1.34 9 1 9 C0.67 6.03 0.34 3.06 0 0 Z " fill="#FDFCE8" transform="translate(27,38)"/>
<path d="M0 0 C3.16115776 1.36983503 3.9927092 1.9890638 6 5 C4.33333333 5 2.66666667 5 1 5 C0.67 3.35 0.34 1.7 0 0 Z " fill="#EF9272" transform="translate(47,31)"/>
<path d="M0 0 C2.475 0.99 2.475 0.99 5 2 C4.01 2.33 3.02 2.66 2 3 C0.31970006 3.97691857 -1.34928604 4.97388051 -3 6 C-1.125 1.125 -1.125 1.125 0 0 Z " fill="#F4B19B" transform="translate(43,26)"/>
</svg>
