<?xml version="1.0" encoding="UTF-8"?>
<svg version="1.1" xmlns="http://www.w3.org/2000/svg" width="141" height="132">
<path d="M0 0 C46.2 0 92.4 0 140 0 C140 43.23 140 86.46 140 131 C93.8 131 47.6 131 0 131 C0 87.77 0 44.54 0 0 Z " fill="#FEFEFE" transform="translate(0,0)"/>
<path d="M0 0 C2.86697492 1.28519565 4.97607712 2.57129254 7 5 C7 5.66 7 6.32 7 7 C7.54527344 7.20753906 8.09054688 7.41507813 8.65234375 7.62890625 C11.88316611 9.51579252 14.11601831 12.16085883 16.5625 14.9375 C20.60191043 19.64879408 20.60191043 19.64879408 25 24 C25.66 24 26.32 24 27 24 C26.938125 23.0925 26.87625 22.185 26.8125 21.25 C27.01896655 17.67124653 27.34684029 16.37869491 30 14 C32.5625 13.625 32.5625 13.625 35 14 C38.79098449 17.79098449 38.04983382 24.27960716 38.1875 29.4375 C38.15067067 33.64340908 37.39882012 37.5550145 36.4375 41.640625 C35.97353352 44.14272996 35.9279718 46.46100595 36 49 C38.42946684 45.15987499 40.82830243 41.31663089 43.08984375 37.375 C47.76280904 29.28666919 52.07683334 22.28211111 60 17 C62.12109375 16.734375 62.12109375 16.734375 64.4375 16.75 C65.19933594 16.74484375 65.96117188 16.7396875 66.74609375 16.734375 C69.33075008 17.03897921 70.78579146 17.63212542 73 19 C78.24504713 26.06477596 79.21971484 34.44224695 80.25 42.9375 C80.56577045 45.34270313 80.88338926 47.74766454 81.203125 50.15234375 C81.33364258 51.20413818 81.46416016 52.25593262 81.59863281 53.33959961 C81.93682211 56.09574229 81.93682211 56.09574229 83 59 C87.95 58.505 87.95 58.505 93 58 C94.125 63.75 94.125 63.75 93 66 C92.92337 67.6035538 92.86301928 69.20791135 92.8125 70.8125 C92.40902991 75.46585506 92.40902991 75.46585506 90.671875 77.734375 C86.51890707 81.16158154 83.47956094 82.37111272 78.09765625 82.2734375 C74.54499853 81.810335 72.61874291 80.37513892 70 78 C67.25047507 72.6243702 66.20628613 67.50902975 65.375 61.5625 C65.19324219 60.35110352 65.19324219 60.35110352 65.0078125 59.11523438 C64.2621339 54.08595644 63.61419843 49.0468569 63 44 C60.6731479 43.49227815 60.6731479 43.49227815 58 44 C55.75976899 46.63008612 55.75976899 46.63008612 53.9375 50.0625 C53.59025879 50.66231689 53.24301758 51.26213379 52.88525391 51.88012695 C51.90674848 53.57720072 50.95255274 55.28822446 50 57 C49.29240477 58.22959172 48.58427713 59.4588777 47.875 60.6875 C47.25625 61.780625 46.6375 62.87375 46 64 C44.48914284 66.53047934 42.96732019 69.05362423 41.43359375 71.5703125 C40.56712174 73.03882909 39.73519343 74.52961315 38.97265625 76.0546875 C36.99442978 80.01114044 34.96827005 82.42372172 31.08203125 84.421875 C27.05202899 85.54090002 23.0497155 84.74964553 19 84 C19 82.68 19 81.36 19 80 C18.071875 80.4125 17.14375 80.825 16.1875 81.25 C15.53910156 81.51941406 14.89070313 81.78882812 14.22265625 82.06640625 C12.69536699 82.70792142 11.18252744 83.38461188 9.68359375 84.08984375 C-1.86950595 89.04621171 -14.99816726 87.90325112 -27 85 C-25.8778098 81.6334294 -25.17438042 81.11194787 -22.40234375 79.08203125 C-21.68369141 78.55029297 -20.96503906 78.01855469 -20.22460938 77.47070312 C-19.46986328 76.92349609 -18.71511719 76.37628906 -17.9375 75.8125 C-17.17888672 75.25369141 -16.42027344 74.69488281 -15.63867188 74.11914062 C-13.76379251 72.73951241 -11.88420569 71.36684859 -10 70 C-13.10069525 67.50856417 -16.2218698 65.04960914 -19.375 62.625 C-23.3608813 59.53377212 -27.19925674 56.31554199 -31 53 C-30 51 -30 51 -28.375 50.375 C-25.2339425 49.87904355 -22.17398169 49.93896189 -19 50 C-19.47050781 49.26394531 -19.94101562 48.52789062 -20.42578125 47.76953125 C-21.04839844 46.79371094 -21.67101563 45.81789062 -22.3125 44.8125 C-22.92738281 43.84957031 -23.54226562 42.88664062 -24.17578125 41.89453125 C-24.77777344 40.93933594 -25.37976563 39.98414063 -26 39 C-26.57621094 38.10152344 -27.15242188 37.20304687 -27.74609375 36.27734375 C-29 34 -29 34 -28.75 31.75 C-28 30 -28 30 -27 29 C-20.61580618 28.44485271 -15.07719474 30.15376362 -9 32 C-9.05929688 31.23300781 -9.11859375 30.46601562 -9.1796875 29.67578125 C-9 27 -9 27 -7.7578125 25.41796875 C-3.22222222 22 -3.22222222 22 -1 22 C-1.00785522 21.16021606 -1.00785522 21.16021606 -1.01586914 20.3034668 C-1.03666691 17.76482263 -1.04966904 15.22619641 -1.0625 12.6875 C-1.07087891 11.80642578 -1.07925781 10.92535156 -1.08789062 10.01757812 C-1.09272461 8.74624023 -1.09272461 8.74624023 -1.09765625 7.44921875 C-1.10551147 6.27879028 -1.10551147 6.27879028 -1.11352539 5.0847168 C-1 3 -1 3 0 0 Z " fill="#C9E2D0" transform="translate(40,23)"/>
<path d="M0 0 C1.0828125 0.1546875 1.0828125 0.1546875 2.1875 0.3125 C3.1775 2.2925 3.1775 2.2925 4.1875 4.3125 C3.300625 4.044375 2.41375 3.77625 1.5 3.5 C-1.93639284 2.92097535 -1.93639284 2.92097535 -4.28515625 5.44140625 C-6.72524874 8.2133815 -8.65025121 10.9081067 -10.5625 14.0625 C-10.89757568 14.61252686 -11.23265137 15.16255371 -11.57788086 15.72924805 C-13.95936937 19.70315451 -16.11390407 23.77239078 -18.22753906 27.89379883 C-26.17801911 43.35325355 -26.17801911 43.35325355 -30.8125 46.3125 C-33.11163317 46.51187133 -35.19893844 46.31133677 -37.4921875 46.078125 C-41.56119962 46.48913633 -43.74349618 49.4994752 -46.54296875 52.26953125 C-53.1710071 58.23590656 -61.26784504 59.50756424 -69.875 59.5 C-70.6270874 59.50064453 -71.3791748 59.50128906 -72.15405273 59.50195312 C-78.19419618 59.44512295 -83.93187029 58.73502814 -89.8125 57.3125 C-88.6903098 53.9459294 -87.98688042 53.42444787 -85.21484375 51.39453125 C-84.49619141 50.86279297 -83.77753906 50.33105469 -83.03710938 49.78320312 C-82.28236328 49.23599609 -81.52761719 48.68878906 -80.75 48.125 C-79.99138672 47.56619141 -79.23277344 47.00738281 -78.45117188 46.43164062 C-76.57629251 45.05201241 -74.69670569 43.67934859 -72.8125 42.3125 C-75.91319525 39.82106417 -79.0343698 37.36210914 -82.1875 34.9375 C-86.1733813 31.84627212 -90.01175674 28.62804199 -93.8125 25.3125 C-93.4825 24.6525 -93.1525 23.9925 -92.8125 23.3125 C-84.17699963 20.49770913 -74.7701111 21.11019511 -65.8125 21.3125 C-66.1425 20.735 -66.4725 20.1575 -66.8125 19.5625 C-67.8125 17.3125 -67.8125 17.3125 -67.8125 13.3125 C-58.03207367 15.77924469 -46.64513495 19.07491428 -40.79296875 27.87890625 C-38.80848743 32.8045312 -38.8285122 38.06049991 -38.8125 43.3125 C-33.67728476 43.83697363 -33.67728476 43.83697363 -29.37109375 41.31640625 C-26.33244789 37.74889683 -24.24149824 34.06587405 -22.0625 29.9375 C-21.19067124 28.33101546 -20.31693793 26.72556321 -19.44140625 25.12109375 C-18.78615967 23.91622314 -18.78615967 23.91622314 -18.11767578 22.68701172 C-16.13941705 19.0879574 -14.090443 15.53486248 -12 12 C-11.65163086 11.39687988 -11.30326172 10.79375977 -10.94433594 10.17236328 C-5.23154136 0.58128237 -5.23154136 0.58128237 0 0 Z " fill="#90669A" transform="translate(102.8125,50.6875)"/>
<path d="M0 0 C2.86697492 1.28519565 4.97607712 2.57129254 7 5 C7 5.66 7 6.32 7 7 C7.81984375 7.31904297 7.81984375 7.31904297 8.65625 7.64453125 C11.82841042 9.47909736 14.07015697 11.99613435 16.5 14.6875 C16.97308594 15.19216797 17.44617187 15.69683594 17.93359375 16.21679688 C24.24063488 23.12658848 26.53902115 28.57689819 26.2734375 38.06640625 C25.80870187 44.75196021 24.96434771 51.37010953 24 58 C23.34 58 22.68 58 22 58 C21.26416004 56.82934552 20.56248766 55.63718874 19.875 54.4375 C15.20389873 47.87932041 7.25077872 45.76461528 0 43 C-1.66726565 42.33483274 -3.33423059 41.66890545 -5 41 C-4.34 43.64 -3.68 46.28 -3 49 C-17.21257268 50.21532688 -17.21257268 50.21532688 -21.2578125 47.46484375 C-22.79210318 45.38029699 -23.90476411 43.34224603 -25 41 C-25.81011825 39.74845509 -26.62243186 38.49832695 -27.4375 37.25 C-29 34 -29 34 -28.8125 31.625 C-28 30 -28 30 -27 29 C-20.61580618 28.44485271 -15.07719474 30.15376362 -9 32 C-9.05929688 31.23300781 -9.11859375 30.46601562 -9.1796875 29.67578125 C-9 27 -9 27 -7.7578125 25.41796875 C-3.22222222 22 -3.22222222 22 -1 22 C-1.00785522 21.16021606 -1.00785522 21.16021606 -1.01586914 20.3034668 C-1.03666691 17.76482263 -1.04966904 15.22619641 -1.0625 12.6875 C-1.07087891 11.80642578 -1.07925781 10.92535156 -1.08789062 10.01757812 C-1.09272461 8.74624023 -1.09272461 8.74624023 -1.09765625 7.44921875 C-1.10551147 6.27879028 -1.10551147 6.27879028 -1.11352539 5.0847168 C-1 3 -1 3 0 0 Z " fill="#F38364" transform="translate(40,23)"/>
<path d="M0 0 C2.17267603 7.77818018 3.56943129 15.4312323 4.47265625 23.45703125 C5.12003703 27.80647099 5.86612006 32.14998537 8.1875 35.9375 C12.04809626 38.20060815 16.2244039 37.18671758 20.375 36.1875 C21.24125 35.795625 22.1075 35.40375 23 35 C23.33 34.01 23.66 33.02 24 32 C25.47901019 36.43703058 25.19399335 40.49015766 24 45 C21.83506406 47.80428836 19.16408732 49.41795634 16 51 C11.37309536 51.38557539 8.91072736 51.42958838 4.6875 49.4375 C-0.8462511 44.41851644 -1.63532457 37.64205321 -2.625 30.5625 C-2.74617188 29.75490234 -2.86734375 28.94730469 -2.9921875 28.11523438 C-3.7378661 23.08595644 -4.38580157 18.0468569 -5 13 C-7.3268521 12.49227815 -7.3268521 12.49227815 -10 13 C-12.24023101 15.63008612 -12.24023101 15.63008612 -14.0625 19.0625 C-14.40974121 19.66231689 -14.75698242 20.26213379 -15.11474609 20.88012695 C-16.09325152 22.57720072 -17.04744726 24.28822446 -18 26 C-18.70759523 27.22959172 -19.41572287 28.4588777 -20.125 29.6875 C-20.74375 30.780625 -21.3625 31.87375 -22 33 C-23.51085716 35.53047934 -25.03267981 38.05362423 -26.56640625 40.5703125 C-27.43287826 42.03882909 -28.26480657 43.52961315 -29.02734375 45.0546875 C-31.00557022 49.01114044 -33.03172995 51.42372172 -36.91796875 53.421875 C-40.94797101 54.54090002 -44.9502845 53.74964553 -49 53 C-49 51.68 -49 50.36 -49 49 C-49.99 48.67 -50.98 48.34 -52 48 C-46.54278088 42.10409767 -46.54278088 42.10409767 -42.7421875 41.84765625 C-41.98164062 41.91855469 -41.22109375 41.98945312 -40.4375 42.0625 C-38.23950407 42.27345864 -38.23950407 42.27345864 -36 42 C-30.05816261 36.36056698 -26.71844393 29.27611885 -23 22.0625 C-10.55840686 -1.99215224 -10.55840686 -1.99215224 0 0 Z " fill="#D9DADC" transform="translate(108,54)"/>
<path d="M0 0 C0.804375 0.78375 1.60875 1.5675 2.4375 2.375 C2.4375 3.365 2.4375 4.355 2.4375 5.375 C1.25414062 5.41238281 0.07078125 5.44976562 -1.1484375 5.48828125 C-12.51539633 5.85356698 -12.51539633 5.85356698 -23.421875 8.8515625 C-27.55351966 9.86185517 -30.67625928 8.8985716 -34.2734375 6.7734375 C-35.15257812 6.10570313 -36.03171875 5.43796875 -36.9375 4.75 C-37.87980469 4.03585938 -38.82210937 3.32171875 -39.79296875 2.5859375 C-43.49233578 -0.36729485 -47.07375577 -3.42615143 -50.5625 -6.625 C-50.2325 -7.285 -49.9025 -7.945 -49.5625 -8.625 C-32.48931813 -14.19010154 -14.01336925 -10.89564073 0 0 Z " fill="#03B7C9" transform="translate(59.5625,82.625)"/>
<path d="M0 0 C0 0.66 0 1.32 0 2 C-0.66 2 -1.32 2 -2 2 C-1.21296097 4.15346549 -1.21296097 4.15346549 0.75390625 4.6171875 C6.38034339 5.57612809 12.47879265 5.47232196 18 4 C18.290652 11.55695208 18.290652 11.55695208 16 15 C13.9765625 16.23046875 13.9765625 16.23046875 11.625 17.1875 C10.46871094 17.67283203 10.46871094 17.67283203 9.2890625 18.16796875 C4.46315314 19.92209621 0.06139512 20.19200304 -5.0625 20.1875 C-5.8145874 20.18814453 -6.5666748 20.18878906 -7.34155273 20.18945312 C-13.38169618 20.13262295 -19.11937029 19.42252814 -25 18 C-23.90126403 14.7037921 -23.29399318 14.18847351 -20.61328125 12.1875 C-19.92169922 11.66929688 -19.23011719 11.15109375 -18.51757812 10.6171875 C-17.42606445 9.81667969 -17.42606445 9.81667969 -16.3125 9 C-15.60416016 8.46632813 -14.89582031 7.93265625 -14.16601562 7.3828125 C-4.221257 0 -4.221257 0 0 0 Z " fill="#B97CA6" transform="translate(38,90)"/>
<path d="M0 0 C3.36720387 1.39332574 4.9859524 2.9789286 7 6 C3.25 9 3.25 9 1 9 C1 17.91 1 26.82 1 36 C-1.97 35.01 -4.94 34.02 -8 33 C-6.84880334 38.13610819 -5.45647878 42.3103587 -3 47 C-3 47.66 -3 48.32 -3 49 C-17.21257268 50.21532688 -17.21257268 50.21532688 -21.2578125 47.46484375 C-22.79210318 45.38029699 -23.90476411 43.34224603 -25 41 C-25.81011825 39.74845509 -26.62243186 38.49832695 -27.4375 37.25 C-29 34 -29 34 -28.8125 31.625 C-28 30 -28 30 -27 29 C-20.61580618 28.44485271 -15.07719474 30.15376362 -9 32 C-9.05929688 31.23300781 -9.11859375 30.46601562 -9.1796875 29.67578125 C-9 27 -9 27 -7.7578125 25.41796875 C-3.22222222 22 -3.22222222 22 -1 22 C-1.00785522 21.16021606 -1.00785522 21.16021606 -1.01586914 20.3034668 C-1.03666691 17.76482263 -1.04966904 15.22619641 -1.0625 12.6875 C-1.07087891 11.80642578 -1.07925781 10.92535156 -1.08789062 10.01757812 C-1.09272461 8.74624023 -1.09272461 8.74624023 -1.09765625 7.44921875 C-1.10551147 6.27879028 -1.10551147 6.27879028 -1.11352539 5.0847168 C-1 3 -1 3 0 0 Z " fill="#C6DE8A" transform="translate(40,23)"/>
<path d="M0 0 C10.83051872 6.36292975 19.90798671 13.66632614 24 26 C24.35868577 29.13966508 24.25579407 31.82815356 24 35 C23.34 35 22.68 35 22 35 C21.26416004 33.82934552 20.56248766 32.63718874 19.875 31.4375 C15.20389873 24.87932041 7.25077872 22.76461528 0 20 C-1.66726565 19.33483274 -3.33423059 18.66890545 -5 18 C-5.33 18.99 -5.66 19.98 -6 21 C-7.80230168 17.17010894 -8.19622241 14.21878192 -8 10 C-5.03 10.99 -2.06 11.98 1 13 C0.67 8.71 0.34 4.42 0 0 Z " fill="#FBC52F" transform="translate(40,46)"/>
<path d="M0 0 C2.17267603 7.77818018 3.56943129 15.4312323 4.47265625 23.45703125 C5.12003703 27.80647099 5.86612006 32.14998537 8.1875 35.9375 C12.04809626 38.20060815 16.2244039 37.18671758 20.375 36.1875 C21.674375 35.5996875 21.674375 35.5996875 23 35 C23.33 34.01 23.66 33.02 24 32 C24.33 32.99 24.66 33.98 25 35 C24.50628906 35.38671875 24.01257813 35.7734375 23.50390625 36.171875 C22.54291016 36.95304687 22.54291016 36.95304687 21.5625 37.75 C20.92441406 38.26046875 20.28632813 38.7709375 19.62890625 39.296875 C17.81189446 41.19667629 17.39576803 42.43586908 17 45 C14.89758397 45.13496251 12.7927039 45.23197307 10.6875 45.3125 C9.51574219 45.37050781 8.34398437 45.42851563 7.13671875 45.48828125 C4 45 4 45 2.14453125 42.79296875 C0.08622602 37.77014199 -0.1416971 33.14929564 -0.375 27.75 C-0.77713292 20.40234199 -1.88354413 14.1746838 -6 8 C-8.41344667 7.33256123 -8.41344667 7.33256123 -11 8 C-13.20142332 10.4390706 -13.20142332 10.4390706 -15 13 C-15.66 13 -16.32 13 -17 13 C-14.03694587 4.11083761 -9.79982642 -1.84902385 0 0 Z " fill="#B5B7BA" transform="translate(108,54)"/>
<path d="M0 0 C10.39341388 2.62134775 20.75910227 5.98285324 27.109375 15.0703125 C28 17 28 17 28 21 C24.93814775 19.52890317 22.07502252 17.84958087 19.1875 16.0625 C12.10541434 11.77602719 12.10541434 11.77602719 4.1875 9.625 C2 9 2 9 0.6875 6.6875 C0 4 0 4 0 0 Z " fill="#47853C" transform="translate(35,64)"/>
<path d="M0 0 C8.87660542 1.10957568 17.74128354 5.5674303 24 12 C24 12.99 24 13.98 24 15 C19.05 15 14.1 15 9 15 C9 14.01 9 13.02 9 12 C7.3563186 10.31066078 5.6857124 8.64740076 4 7 C0 1.37837838 0 1.37837838 0 0 Z " fill="#019EC0" transform="translate(38,73)"/>
<path d="M0 0 C0.66 0.99 1.32 1.98 2 3 C1.06027344 4.64548828 1.06027344 4.64548828 0.1015625 6.32421875 C-0.72412351 7.77855207 -1.54963517 9.23298438 -2.375 10.6875 C-2.7875 11.40873047 -3.2 12.12996094 -3.625 12.87304688 C-5.69031682 16.52066287 -7.4975835 20.07743477 -9 24 C-10.3125 25.4375 -10.3125 25.4375 -12 27 C-12.7425 28.03125 -13.485 29.0625 -14.25 30.125 C-17 33 -17 33 -20.5625 34.1875 C-24 34 -24 34 -26.4375 31.5625 C-26.953125 30.716875 -27.46875 29.87125 -28 29 C-26.5625 26.5 -26.5625 26.5 -24 24 C-21.71514923 23.90461724 -19.66634588 24.11784117 -17.4140625 24.5078125 C-13.26922354 23.63592081 -11.34477679 20.35056466 -9 17 C-7.2290111 14.08916206 -5.65767789 11.10439642 -4.125 8.0625 C-3.7228125 7.28326172 -3.320625 6.50402344 -2.90625 5.70117188 C-1.92912082 3.80507597 -0.96334285 1.90313732 0 0 Z " fill="#CBCCCE" transform="translate(87,72)"/>
<path d="M0 0 C3.36720387 1.39332574 4.9859524 2.9789286 7 6 C3.25 9 3.25 9 1 9 C1 17.91 1 26.82 1 36 C-6 34 -6 34 -9 32 C-9.5625 29.6875 -9.5625 29.6875 -9 27 C-7.15665144 24.92552822 -5.30989239 23.61692467 -3 22 C-2.34 22 -1.68 22 -1 22 C-1.00523682 21.44014404 -1.01047363 20.88028809 -1.01586914 20.3034668 C-1.03666691 17.76482263 -1.04966904 15.22619641 -1.0625 12.6875 C-1.07087891 11.80642578 -1.07925781 10.92535156 -1.08789062 10.01757812 C-1.09111328 9.17001953 -1.09433594 8.32246094 -1.09765625 7.44921875 C-1.10289307 6.66893311 -1.10812988 5.88864746 -1.11352539 5.0847168 C-1 3 -1 3 0 0 Z " fill="#FCF28A" transform="translate(40,23)"/>
<path d="M0 0 C0.33 0 0.66 0 1 0 C1.25394531 1.12019531 1.50789063 2.24039063 1.76953125 3.39453125 C2.11662181 4.86732093 2.46430933 6.33997001 2.8125 7.8125 C2.97814453 8.55048828 3.14378906 9.28847656 3.31445312 10.04882812 C4.4410157 15.29748784 4.4410157 15.29748784 8 19 C12.75481209 19.44856718 16.63756907 18.97348066 21 17 C21.33 16.01 21.66 15.02 22 14 C22.33 14.99 22.66 15.98 23 17 C22.50628906 17.38671875 22.01257813 17.7734375 21.50390625 18.171875 C20.86324219 18.69265625 20.22257812 19.2134375 19.5625 19.75 C18.92441406 20.26046875 18.28632813 20.7709375 17.62890625 21.296875 C15.62029193 23.11555926 15.62029193 23.11555926 15 27 C11.04 27 7.08 27 3 27 C1.41581489 23.83162977 1.33720162 20.35684519 0.9375 16.875 C0.84662109 16.14023438 0.75574219 15.40546875 0.66210938 14.6484375 C0.08651293 9.73206483 -0.08417497 4.94948814 0 0 Z " fill="#9CA0A2" transform="translate(110,72)"/>
<path d="M0 0 C0 0.33 0 0.66 0 1 C-4.62 1.33 -9.24 1.66 -14 2 C-12.68 3.65 -11.36 5.3 -10 7 C-10.5625 10.1875 -10.5625 10.1875 -12 13 C-12.99 13.66 -13.98 14.32 -15 15 C-19.29 11.37 -23.58 7.74 -28 4 C-27.67 3.34 -27.34 2.68 -27 2 C-18.36449963 -0.81479087 -8.9576111 -0.20230489 0 0 Z " fill="#56CAE9" transform="translate(37,72)"/>
<path d="M0 0 C8.96989354 1.96626059 15.88057246 6.09406296 22 13 C22 13.66 22 14.32 22 15 C15.54646385 12.94235079 9.2638737 10.57616518 3 8 C2.67 8.99 2.34 9.98 2 11 C0.19769832 7.17010894 -0.19622241 4.21878192 0 0 Z " fill="#BFD84E" transform="translate(32,56)"/>
<path d="M0 0 C1.484375 1.0859375 1.484375 1.0859375 3 3 C3.328125 6.0390625 3.328125 6.0390625 3.25 9.625 C3.22421875 10.86765625 3.1984375 12.1103125 3.171875 13.390625 C2.96957987 17.63882263 2.58099551 21.78778258 2 26 C-1.32993034 22.17058011 -3.05324525 17.62477778 -5 13 C-4.34 13 -3.68 13 -3 13 C-3.03480469 12.31292969 -3.06960937 11.62585937 -3.10546875 10.91796875 C-3.13253906 10.01691406 -3.15960938 9.11585937 -3.1875 8.1875 C-3.22230469 7.29417969 -3.25710937 6.40085937 -3.29296875 5.48046875 C-2.95081002 2.58352485 -2.24606427 1.77444972 0 0 Z " fill="#BB4E36" transform="translate(63,48)"/>
<path d="M0 0 C3.19624262 1.53837846 6.21605574 3.28866532 9.25 5.125 C10.14203125 5.66382812 11.0340625 6.20265625 11.953125 6.7578125 C12.96632813 7.37269531 12.96632813 7.37269531 14 8 C11.68468695 10.31531305 10.13356684 11.07417343 7 12 C2.56994981 11.72312186 -0.343301 10.47364932 -4 8 C-2.87548273 5.0280615 -1.77706209 2.66559313 0 0 Z " fill="#04BFF1" transform="translate(27,80)"/>
<path d="M0 0 C0.721875 0.103125 1.44375 0.20625 2.1875 0.3125 C2.8475 1.6325 3.5075 2.9525 4.1875 4.3125 C3.300625 4.044375 2.41375 3.77625 1.5 3.5 C-1.93639284 2.92097535 -1.93639284 2.92097535 -4.28515625 5.44140625 C-6.72524874 8.2133815 -8.65025121 10.9081067 -10.5625 14.0625 C-10.89757568 14.61252686 -11.23265137 15.16255371 -11.57788086 15.72924805 C-13.95940677 19.70321693 -16.1136517 23.77270322 -18.22802734 27.89379883 C-25.97052664 42.95525074 -25.97052664 42.95525074 -30.8125 46.3125 C-34.75 46.8125 -34.75 46.8125 -37.8125 46.3125 C-38.4725 44.9925 -39.1325 43.6725 -39.8125 42.3125 C-37.89192708 42.73567708 -35.97135417 43.15885417 -34.05078125 43.58203125 C-30.38974568 43.14117356 -29.12601145 41.09085919 -26.8125 38.3125 C-25.0773827 35.59770275 -23.56585352 32.78578393 -22.0625 29.9375 C-21.19067124 28.33101546 -20.31693793 26.72556321 -19.44140625 25.12109375 C-19.0045752 24.31784668 -18.56774414 23.51459961 -18.11767578 22.68701172 C-16.13941705 19.0879574 -14.090443 15.53486248 -12 12 C-11.47744629 11.09531982 -11.47744629 11.09531982 -10.94433594 10.17236328 C-5.23154136 0.58128237 -5.23154136 0.58128237 0 0 Z " fill="#515451" transform="translate(102.8125,50.6875)"/>
<path d="M0 0 C2.44064587 5.64399358 2.19289099 10.97751478 2 17 C1.67 17 1.34 17 1 17 C0.34 14.36 -0.32 11.72 -1 9 C-1.66 9 -2.32 9 -3 9 C-3 8.34 -3 7.68 -3 7 C-9.19863615 6.37685789 -9.19863615 6.37685789 -14.5625 9 C-15.036875 9.66 -15.51125 10.32 -16 11 C-13.07895497 2.48028534 -9.10260772 -1.71747315 0 0 Z " fill="#95989A" transform="translate(108,54)"/>
<path d="M0 0 C0 3.58365796 -0.77443091 4.36645071 -2.9375 7.125 C-3.48277344 7.82882813 -4.02804688 8.53265625 -4.58984375 9.2578125 C-6.78692098 11.97220708 -6.78692098 11.97220708 -9.875 12.375 C-10.90625 12.25125 -11.9375 12.1275 -13 12 C-14.875 9.5 -14.875 9.5 -16 7 C-14.77734375 5.49609375 -14.77734375 5.49609375 -13 4 C-10.87890625 3.84765625 -10.87890625 3.84765625 -8.5625 4.0625 C-4.68837477 4.24154735 -4.68837477 4.24154735 -1.4375 2 C-0.7259375 1.01 -0.7259375 1.01 0 0 Z " fill="#AFB1B5" transform="translate(76,92)"/>
<path d="M0 0 C3.99500618 1.3697164 6.80009492 3.25722422 10 6 C8.50260417 7.23697917 7.00520833 8.47395833 5.5078125 9.7109375 C4.28948839 10.75250992 3.13339903 11.86660097 2 13 C-0.28571429 4.57142857 -0.28571429 4.57142857 0 0 Z " fill="#FEF8AD" transform="translate(28,39)"/>
<path d="M0 0 C3.36720387 1.39332574 4.9859524 2.9789286 7 6 C3.25 9 3.25 9 1 9 C0.67 13.62 0.34 18.24 0 23 C-0.33 23 -0.66 23 -1 23 C-1.02902429 19.72918529 -1.04680684 16.4584037 -1.0625 13.1875 C-1.07087891 12.25873047 -1.07925781 11.32996094 -1.08789062 10.37304688 C-1.09111328 9.48037109 -1.09433594 8.58769531 -1.09765625 7.66796875 C-1.10289307 6.84578857 -1.10812988 6.0236084 -1.11352539 5.17651367 C-1 3 -1 3 0 0 Z " fill="#F7AF95" transform="translate(40,23)"/>
<path d="M0 0 C0.66 0.33 1.32 0.66 2 1 C0.25 7.75 0.25 7.75 -2 10 C-4.53125 10.30078125 -4.53125 10.30078125 -7.5 10.3125 C-8.4796875 10.32925781 -9.459375 10.34601563 -10.46875 10.36328125 C-11.72171875 10.18345703 -11.72171875 10.18345703 -13 10 C-13.66 9.01 -14.32 8.02 -15 7 C-9.06 6.505 -9.06 6.505 -3 6 C-3 4.68 -3 3.36 -3 2 C-2.01 1.34 -1.02 0.68 0 0 Z " fill="#C0C1C4" transform="translate(128,92)"/>
<path d="M0 0 C10.10831721 6.47969052 10.10831721 6.47969052 13 10 C13 10.66 13 11.32 13 12 C8.27934033 10.45730076 3.58335908 8.92205381 -1 7 C-0.34 6.67 0.32 6.34 1 6 C0.67 4.02 0.34 2.04 0 0 Z " fill="#B5C835" transform="translate(41,59)"/>
<path d="M0 0 C0.99 0.495 0.99 0.495 2 1 C2.47070312 2.88256836 2.47070312 2.88256836 2.78125 5.33984375 C2.90113281 6.23896484 3.02101563 7.13808594 3.14453125 8.06445312 C3.32048828 9.48661133 3.32048828 9.48661133 3.5 10.9375 C4.41047719 18.02621523 5.50444264 25.00902852 7 32 C6.01 31.67 5.02 31.34 4 31 C1.83560904 20.64087092 0.4409392 10.58254084 0 0 Z " fill="#EAEBEC" transform="translate(102,66)"/>
<path d="M0 0 C0.99 0.99 1.98 1.98 3 3 C2.69320312 3.56203125 2.38640625 4.1240625 2.0703125 4.703125 C0.97042415 7.06346934 0.39904149 9.20465562 -0.125 11.75 C-0.37636719 12.94882812 -0.37636719 12.94882812 -0.6328125 14.171875 C-0.75398438 14.77515625 -0.87515625 15.3784375 -1 16 C-1.99 16 -2.98 16 -4 16 C-4.33 15.01 -4.66 14.02 -5 13 C-4.34 13 -3.68 13 -3 13 C-3.03480469 12.31292969 -3.06960937 11.62585937 -3.10546875 10.91796875 C-3.13253906 10.01691406 -3.15960938 9.11585937 -3.1875 8.1875 C-3.22230469 7.29417969 -3.25710937 6.40085937 -3.29296875 5.48046875 C-2.95081002 2.58352485 -2.24606427 1.77444972 0 0 Z " fill="#D96246" transform="translate(63,48)"/>
<path d="M0 0 C0.33 0 0.66 0 1 0 C1.91611687 7.7869934 1.91611687 7.7869934 -0.265625 10.67578125 C-3.79864635 13.5828061 -6.48848732 15.14603389 -11 15.1875 C-12.051875 15.20876953 -12.051875 15.20876953 -13.125 15.23046875 C-15 15 -15 15 -17 13 C-16.32453125 12.96261719 -15.6490625 12.92523438 -14.953125 12.88671875 C-14.06109375 12.82097656 -13.1690625 12.75523438 -12.25 12.6875 C-11.36828125 12.62949219 -10.4865625 12.57148437 -9.578125 12.51171875 C-6.58924373 11.9184711 -5.1675194 11.12872711 -3 9 C-2.14109251 7.01204135 -2.14109251 7.01204135 -1.8125 4.875 C-1 1 -1 1 0 0 Z " fill="#E0E1E3" transform="translate(131,90)"/>
<path d="M0 0 C1.65 0.33 3.3 0.66 5 1 C4.13568359 1.29583984 4.13568359 1.29583984 3.25390625 1.59765625 C0.12065151 3.5471163 -1.28670344 6.3067604 -3.0625 9.4375 C-7.15948997 16.53114548 -7.15948997 16.53114548 -10 19 C-8.29160803 11.20647855 -5.26090338 5.96716164 0 0 Z " fill="#EDEDEE" transform="translate(97,64)"/>
<path d="M0 0 C0.33 0.99 0.66 1.98 1 3 C-2.39107265 6.47802323 -4.61218693 8.37665653 -9.5625 8.625 C-13.30425241 8.43538417 -13.9767463 8.01898262 -17.0625 5.5 C-17.701875 4.675 -18.34125 3.85 -19 3 C-18.67 2.34 -18.34 1.68 -18 1 C-17.2265625 1.99 -17.2265625 1.99 -16.4375 3 C-14.08475601 5.30096707 -14.08475601 5.30096707 -10.625 5.375 C-7.07421687 5.00767761 -4.25161332 4.47096793 -1 3 C-0.67 2.01 -0.34 1.02 0 0 Z " fill="#3C3D3A" transform="translate(132,86)"/>
<path d="M0 0 C1.65 0 3.3 0 5 0 C5.6875 3.3125 5.6875 3.3125 6 7 C4.6875 8.9375 4.6875 8.9375 3 10 C2.34 10 1.68 10 1 10 C-0.1577506 6.52674819 -0.06866652 3.63932552 0 0 Z " fill="#7F446C" transform="translate(58,89)"/>
<path d="M0 0 C0.99 0.33 1.98 0.66 3 1 C2.67 3.64 2.34 6.28 2 9 C-2 9 -2 9 -4 8 C-2.87548273 5.0280615 -1.77706209 2.66559313 0 0 Z " fill="#24C4F1" transform="translate(27,80)"/>
<path d="M0 0 C3 1 3 1 4.6875 3.3125 C6 6 6 6 6 10 C3.04590299 8.62845496 0.55991624 7.01136276 -2 5 C-1.34 3.35 -0.68 1.7 0 0 Z " fill="#126933" transform="translate(57,75)"/>
<path d="M0 0 C0.66 0.99 1.32 1.98 2 3 C-0.97 8.28 -3.94 13.56 -7 19 C-7.99 18.67 -8.98 18.34 -10 18 C-9.04287109 16.30230469 -9.04287109 16.30230469 -8.06640625 14.5703125 C-7.23174581 13.08855576 -6.39711176 11.60678416 -5.5625 10.125 C-5.14162109 9.37863281 -4.72074219 8.63226563 -4.28710938 7.86328125 C-3.88427734 7.14785156 -3.48144531 6.43242188 -3.06640625 5.6953125 C-2.69459229 5.03547363 -2.32277832 4.37563477 -1.93969727 3.69580078 C-1.26534798 2.47885349 -0.62220698 1.24441397 0 0 Z " fill="#C4C5C7" transform="translate(87,72)"/>
<path d="M0 0 C2.625 -0.1875 2.625 -0.1875 5 0 C5.66 1.32 6.32 2.64 7 4 C4.69 3.34 2.38 2.68 0 2 C-0.226875 2.556875 -0.45375 3.11375 -0.6875 3.6875 C-2.37550036 6.66159588 -4.46676517 8.72008865 -7 11 C-7.66 11 -8.32 11 -9 11 C-7.65706644 6.48285983 -6.05617236 5.2308948 -2 3 C-1.34 2.01 -0.68 1.02 0 0 Z " fill="#C8C9CB" transform="translate(97,61)"/>
<path d="M0 0 C0.33 0 0.66 0 1 0 C1.03738281 0.73863281 1.07476562 1.47726563 1.11328125 2.23828125 C1.53503695 8.74655055 2.51060855 14.5977977 4.4765625 20.8203125 C5 23 5 23 4 25 C0.1326001 19.11482624 -0.14858467 14.10738326 -0.0625 7.1875 C-0.05798828 6.49462891 -0.05347656 5.80175781 -0.04882812 5.08789062 C-0.03713156 3.39188932 -0.01919924 1.69593297 0 0 Z " fill="#BFC0C3" transform="translate(108,74)"/>
<path d="M0 0 C0.33 0.66 0.66 1.32 1 2 C-0.07421875 4.13671875 -0.07421875 4.13671875 -1.6875 6.6875 C-2.24050781 7.57566406 -2.79351562 8.46382812 -3.36328125 9.37890625 C-4.17345703 10.67634766 -4.17345703 10.67634766 -5 12 C-6.35529955 14.32161584 -7.67718877 16.65964166 -9 19 C-10 16 -10 16 -9.22265625 13.95703125 C-8.83980469 13.24933594 -8.45695312 12.54164062 -8.0625 11.8125 C-7.68222656 11.09707031 -7.30195312 10.38164063 -6.91015625 9.64453125 C-6.45962891 8.83048828 -6.45962891 8.83048828 -6 8 C-5.34 8 -4.68 8 -4 8 C-3.566875 6.8553125 -3.566875 6.8553125 -3.125 5.6875 C-2 3 -2 3 0 0 Z " fill="#EEEFF0" transform="translate(85,85)"/>
<path d="M0 0 C0.33 0 0.66 0 1 0 C0.98839844 0.95261719 0.97679688 1.90523438 0.96484375 2.88671875 C0.95582031 4.14097656 0.94679688 5.39523438 0.9375 6.6875 C0.92009766 8.54955078 0.92009766 8.54955078 0.90234375 10.44921875 C0.98566774 13.47887902 1.35534612 16.05876669 2 19 C2.03824623 21.33301986 2.04574284 23.66711508 2 26 C-1.08169372 21.37745943 -1.13574166 18.09250432 -1.125 12.625 C-1.12757812 11.31789063 -1.13015625 10.01078125 -1.1328125 8.6640625 C-1.0224678 5.61984687 -0.71706674 2.94794102 0 0 Z " fill="#ACB1B2" transform="translate(110,66)"/>
<path d="M0 0 C3.54975845 3.54975845 4.125 6.9240123 4.125 11.8125 C4.09311538 13.20859103 4.05472088 14.60461746 4 16 C3.34 16 2.68 16 2 16 C-0.14336161 12.5233662 -0.21277626 9.78770805 -0.125 5.75 C-0.10695312 4.67234375 -0.08890625 3.5946875 -0.0703125 2.484375 C-0.04710937 1.66453125 -0.02390625 0.8446875 0 0 Z " fill="#CDAA13" transform="translate(60,65)"/>
<path d="M0 0 C0.66 0 1.32 0 2 0 C2.66 3.63 3.32 7.26 4 11 C2.68 11.99 1.36 12.98 0 14 C-0.66 13.67 -1.32 13.34 -2 13 C-1.67 12.67 -1.34 12.34 -1 12 C-0.76572222 9.98405418 -0.58663876 7.961526 -0.4375 5.9375 C-0.35371094 4.83277344 -0.26992188 3.72804688 -0.18359375 2.58984375 C-0.12300781 1.73519531 -0.06242187 0.88054687 0 0 Z " fill="#9F5688" transform="translate(56,89)"/>
<path d="M0 0 C2 2 2 2 2 5.3125 C0.678338 10.18612863 -0.8010167 11.31265069 -5 14 C-5.99 13.67 -6.98 13.34 -8 13 C-7.360625 12.896875 -6.72125 12.79375 -6.0625 12.6875 C-5.0415625 12.3471875 -5.0415625 12.3471875 -4 12 C-3.67 11.01 -3.34 10.02 -3 9 C-2.34 8.67 -1.68 8.34 -1 8 C-0.53476937 6.10466658 -0.53476937 6.10466658 -0.375 3.9375 C-0.25125 2.638125 -0.1275 1.33875 0 0 Z " fill="#F1F2F2" transform="translate(132,91)"/>
<path d="M0 0 C0 3 0 3 -1.0625 4.6875 C-3.97320702 6.65926927 -6.58029471 6.19356822 -10 6 C-10.66 4.68 -11.32 3.36 -12 2 C-10.7625 2.226875 -9.525 2.45375 -8.25 2.6875 C-5.13146889 3.09666898 -4.31872101 3.18326458 -1.5 1.5625 C-1.005 1.046875 -0.51 0.53125 0 0 Z " fill="#2F2E2C" transform="translate(75,91)"/>
<path d="M0 0 C2.91517292 1.07401108 4.77810176 1.77810176 7 4 C6.38125 4.2475 5.7625 4.495 5.125 4.75 C2.54131114 6.01039254 2.54131114 6.01039254 1 10 C0.67 6.7 0.34 3.4 0 0 Z " fill="#FDFBD5" transform="translate(28,39)"/>
<path d="M0 0 C0.66 0.33 1.32 0.66 2 1 C1.67 2.32 1.34 3.64 1 5 C2.65 5.33 4.3 5.66 6 6 C6 6.33 6 6.66 6 7 C2.37 6.67 -1.26 6.34 -5 6 C-3.86695008 2.60085025 -2.87481525 1.94745549 0 0 Z " fill="#D7B7CE" transform="translate(18,102)"/>
<path d="M0 0 C2.31 0.66 4.62 1.32 7 2 C6.67 2.66 6.34 3.32 6 4 C4.9275 3.9175 3.855 3.835 2.75 3.75 C-1.04009265 3.63762783 -1.04009265 3.63762783 -3.4375 6 C-3.953125 6.66 -4.46875 7.32 -5 8 C-3.8141763 4.62496331 -2.72426311 2.35277269 0 0 Z " fill="#A4A7AB" transform="translate(97,57)"/>
<path d="M0 0 C0 0.66 0 1.32 0 2 C-1.32 2 -2.64 2 -4 2 C-4.33 3.32 -4.66 4.64 -5 6 C-6.32 4.68 -7.64 3.36 -9 2 C-5.62902617 0.50178941 -3.79557881 0 0 0 Z " fill="#95DAF6" transform="translate(18,73)"/>
<path d="M0 0 C3.3 0.33 6.6 0.66 10 1 C10 1.33 10 1.66 10 2 C9.05125 2.28875 8.1025 2.5775 7.125 2.875 C3.94788422 3.76825109 3.94788422 3.76825109 2 6 C0 3 0 3 0 0 Z " fill="#E5F0CB" transform="translate(8,50)"/>
<path d="M0 0 C0.78375 0.04125 1.5675 0.0825 2.375 0.125 C3.035 1.445 3.695 2.765 4.375 4.125 C3.488125 3.898125 2.60125 3.67125 1.6875 3.4375 C-2.20290624 3.07048054 -3.53940696 3.85618159 -6.625 6.125 C-3.85227273 0.18344156 -3.85227273 0.18344156 0 0 Z " fill="#323230" transform="translate(102.625,50.875)"/>
<path d="M0 0 C1.65 0 3.3 0 5 0 C4.67 0.66 4.34 1.32 4 2 C3.67 2 3.34 2 3 2 C3 4.64 3 7.28 3 10 C2.34 10 1.68 10 1 10 C-0.1577506 6.52674819 -0.06866652 3.63932552 0 0 Z " fill="#8D4B7B" transform="translate(58,89)"/>
<path d="M0 0 C2.31 0.33 4.62 0.66 7 1 C5.75 3 5.75 3 4 5 C2.68 5 1.36 5 0 5 C-0.33 4.01 -0.66 3.02 -1 2 C-0.67 1.34 -0.34 0.68 0 0 Z " fill="#96989B" transform="translate(64,96)"/>
<path d="M0 0 C1.32 0.66 2.64 1.32 4 2 C3.67 2.66 3.34 3.32 3 4 C2.01 4 1.02 4 0 4 C0 6.31 0 8.62 0 11 C-0.33 11 -0.66 11 -1 11 C-1.125 3.375 -1.125 3.375 0 0 Z " fill="#FAD2C1" transform="translate(40,23)"/>
<path d="M0 0 C1.25541557 3.76624671 0.37061958 5.37188934 -1 9 C-1.99 8.67 -2.98 8.34 -4 8 C-2.87548273 5.0280615 -1.77706209 2.66559313 0 0 Z " fill="#3AC6F2" transform="translate(27,80)"/>
<path d="M0 0 C0.66 0.33 1.32 0.66 2 1 C2 3.64 2 6.28 2 9 C0.4375 7.875 0.4375 7.875 -1 6 C-0.6875 2.8125 -0.6875 2.8125 0 0 Z " fill="#EDC60E" transform="translate(59,68)"/>
</svg>
